<?xml version="1.0" encoding="UTF-8"?>
<!DOCTYPE svg PUBLIC "-//W3C//DTD SVG 1.1//EN" "http://www.w3.org/Graphics/SVG/1.1/DTD/svg11.dtd">
<svg version="1.2" width="62.44mm" height="64.21mm" viewBox="0 0 6244 6421" preserveAspectRatio="xMidYMid" fill-rule="evenodd" stroke-width="28.222" stroke-linejoin="round" xmlns="http://www.w3.org/2000/svg" xmlns:ooo="http://xml.openoffice.org/svg/export" xmlns:xlink="http://www.w3.org/1999/xlink" xmlns:presentation="http://sun.com/xmlns/staroffice/presentation" xmlns:smil="http://www.w3.org/2001/SMIL20/" xmlns:anim="urn:oasis:names:tc:opendocument:xmlns:animation:1.0" xml:space="preserve">
 <defs class="ClipPathGroup">
  <clipPath id="presentation_clip_path" clipPathUnits="userSpaceOnUse">
   <rect x="0" y="0" width="6244" height="6421"/>
  </clipPath>
  <clipPath id="presentation_clip_path_shrink" clipPathUnits="userSpaceOnUse">
   <rect x="6" y="6" width="6232" height="6409"/>
  </clipPath>
 </defs>
 <defs class="TextShapeIndex">
  <g ooo:slide="id1" ooo:id-list="id3 id4 id5 id6 id7 id8 id9 id10 id11 id12 id13"/>
 </defs>
 <defs class="EmbeddedBulletChars">
  <g id="bullet-char-template-57356" transform="scale(0.00048828125,-0.00048828125)">
   <path d="M 580,1141 L 1163,571 580,0 -4,571 580,1141 Z"/>
  </g>
  <g id="bullet-char-template-57354" transform="scale(0.00048828125,-0.00048828125)">
   <path d="M 8,1128 L 1137,1128 1137,0 8,0 8,1128 Z"/>
  </g>
  <g id="bullet-char-template-10146" transform="scale(0.00048828125,-0.00048828125)">
   <path d="M 174,0 L 602,739 174,1481 1456,739 174,0 Z M 1358,739 L 309,1346 659,739 1358,739 Z"/>
  </g>
  <g id="bullet-char-template-10132" transform="scale(0.00048828125,-0.00048828125)">
   <path d="M 2015,739 L 1276,0 717,0 1260,543 174,543 174,936 1260,936 717,1481 1274,1481 2015,739 Z"/>
  </g>
  <g id="bullet-char-template-10007" transform="scale(0.00048828125,-0.00048828125)">
   <path d="M 0,-2 C -7,14 -16,27 -25,37 L 356,567 C 262,823 215,952 215,954 215,979 228,992 255,992 264,992 276,990 289,987 310,991 331,999 354,1012 L 381,999 492,748 772,1049 836,1024 860,1049 C 881,1039 901,1025 922,1006 886,937 835,863 770,784 769,783 710,716 594,584 L 774,223 C 774,196 753,168 711,139 L 727,119 C 717,90 699,76 672,76 641,76 570,178 457,381 L 164,-76 C 142,-110 111,-127 72,-127 30,-127 9,-110 8,-76 1,-67 -2,-52 -2,-32 -2,-23 -1,-13 0,-2 Z"/>
  </g>
  <g id="bullet-char-template-10004" transform="scale(0.00048828125,-0.00048828125)">
   <path d="M 285,-33 C 182,-33 111,30 74,156 52,228 41,333 41,471 41,549 55,616 82,672 116,743 169,778 240,778 293,778 328,747 346,684 L 369,508 C 377,444 397,411 428,410 L 1163,1116 C 1174,1127 1196,1133 1229,1133 1271,1133 1292,1118 1292,1087 L 1292,965 C 1292,929 1282,901 1262,881 L 442,47 C 390,-6 338,-33 285,-33 Z"/>
  </g>
  <g id="bullet-char-template-9679" transform="scale(0.00048828125,-0.00048828125)">
   <path d="M 813,0 C 632,0 489,54 383,161 276,268 223,411 223,592 223,773 276,916 383,1023 489,1130 632,1184 813,1184 992,1184 1136,1130 1245,1023 1353,916 1407,772 1407,592 1407,412 1353,268 1245,161 1136,54 992,0 813,0 Z"/>
  </g>
  <g id="bullet-char-template-8226" transform="scale(0.00048828125,-0.00048828125)">
   <path d="M 346,457 C 273,457 209,483 155,535 101,586 74,649 74,723 74,796 101,859 155,911 209,963 273,989 346,989 419,989 480,963 531,910 582,859 608,796 608,723 608,648 583,586 532,535 482,483 420,457 346,457 Z"/>
  </g>
  <g id="bullet-char-template-8211" transform="scale(0.00048828125,-0.00048828125)">
   <path d="M -4,459 L 1135,459 1135,606 -4,606 -4,459 Z"/>
  </g>
  <g id="bullet-char-template-61548" transform="scale(0.00048828125,-0.00048828125)">
   <path d="M 173,740 C 173,903 231,1043 346,1159 462,1274 601,1332 765,1332 928,1332 1067,1274 1183,1159 1299,1043 1357,903 1357,740 1357,577 1299,437 1183,322 1067,206 928,148 765,148 601,148 462,206 346,322 231,437 173,577 173,740 Z"/>
  </g>
 </defs>
 <defs class="TextEmbeddedBitmaps"/>
 <g>
  <g id="id2" class="Master_Slide">
   <g id="bg-id2" class="Background"/>
   <g id="bo-id2" class="BackgroundObjects"/>
  </g>
 </g>
 <g class="SlideGroup">
  <g>
   <g id="container-id1">
    <g id="id1" class="Slide" clip-path="url(#presentation_clip_path)">
     <g class="Page">
      <g class="com.sun.star.drawing.ClosedBezierShape">
       <g id="id3">
        <rect class="BoundingBox" stroke="none" fill="none" x="1099" y="1279" width="5147" height="5143"/>
        <path fill="rgb(0,185,86)" stroke="none" d="M 6245,3851 C 6245,4324 6137,4726 5900,5136 5663,5546 5368,5840 4958,6077 4548,6314 4145,6421 3672,6421 3198,6421 2796,6314 2385,6077 1975,5840 1681,5546 1444,5136 1207,4726 1099,4324 1099,3851 1099,3377 1207,2975 1444,2565 1681,2156 1975,1861 2385,1624 2796,1388 3198,1280 3672,1280 4145,1280 4548,1388 4958,1624 5368,1861 5663,2156 5900,2565 6137,2975 6245,3377 6245,3851 Z"/>
       </g>
      </g>
      <g class="com.sun.star.drawing.PolyPolygonShape">
       <g id="id4">
        <rect class="BoundingBox" stroke="none" fill="none" x="827" y="1038" width="3816" height="4024"/>
        <path fill="none" stroke="rgb(51,51,51)" stroke-width="151" stroke-linejoin="miter" d="M 949,1114 L 903,1160 903,4909 980,4985 4536,4985 4566,1184 4513,1114 949,1114 Z"/>
       </g>
      </g>
      <g class="com.sun.star.drawing.LineShape">
       <g id="id5">
        <rect class="BoundingBox" stroke="none" fill="none" x="2824" y="1915" width="1444" height="153"/>
        <path fill="none" stroke="rgb(51,51,51)" stroke-width="151" stroke-linejoin="miter" d="M 2824,1991 L 4267,1991"/>
       </g>
      </g>
      <g class="com.sun.star.drawing.LineShape">
       <g id="id6">
        <rect class="BoundingBox" stroke="none" fill="none" x="2824" y="2247" width="1444" height="153"/>
        <path fill="none" stroke="rgb(51,51,51)" stroke-width="151" stroke-linejoin="miter" d="M 2824,2323 L 4267,2323"/>
       </g>
      </g>
      <g class="com.sun.star.drawing.LineShape">
       <g id="id7">
        <rect class="BoundingBox" stroke="none" fill="none" x="2824" y="2610" width="1444" height="153"/>
        <path fill="none" stroke="rgb(51,51,51)" stroke-width="151" stroke-linejoin="miter" d="M 2824,2686 L 4267,2686"/>
       </g>
      </g>
      <g class="com.sun.star.drawing.LineShape">
       <g id="id8">
        <rect class="BoundingBox" stroke="none" fill="none" x="2824" y="2943" width="1444" height="153"/>
        <path fill="none" stroke="rgb(51,51,51)" stroke-width="151" stroke-linejoin="miter" d="M 2824,3019 L 4267,3019"/>
       </g>
      </g>
      <g class="com.sun.star.drawing.PolyPolygonShape">
       <g id="id9">
        <rect class="BoundingBox" stroke="none" fill="none" x="1190" y="2096" width="1909" height="2513"/>
        <path fill="rgb(255,255,255)" stroke="none" d="M 1266,4108 L 3022,4108 3022,4532 1266,4532 1266,4108 Z M 1266,2172 L 2386,2172 2386,2959 1266,2959 1266,2172 Z"/>
        <path fill="none" stroke="rgb(51,51,51)" stroke-width="151" stroke-linejoin="miter" d="M 1266,4108 L 3022,4108 3022,4532 1266,4532 1266,4108 Z"/>
        <path fill="none" stroke="rgb(51,51,51)" stroke-width="151" stroke-linejoin="miter" d="M 1266,2172 L 2386,2172 2386,2959 1266,2959 1266,2172 Z"/>
       </g>
      </g>
      <g class="com.sun.star.drawing.PolyLineShape">
       <g id="id10">
        <rect class="BoundingBox" stroke="none" fill="none" x="40" y="1855" width="213" height="213"/>
        <path fill="none" stroke="rgb(51,51,51)" stroke-width="93" stroke-linejoin="miter" d="M 73,1888 L 219,2034"/>
        <path fill="none" stroke="rgb(51,51,51)" stroke-width="93" stroke-linejoin="miter" d="M 219,1888 L 73,2034"/>
       </g>
      </g>
      <g class="com.sun.star.drawing.PolyLineShape">
       <g id="id11">
        <rect class="BoundingBox" stroke="none" fill="none" x="5579" y="1341" width="213" height="213"/>
        <path fill="none" stroke="rgb(51,51,51)" stroke-width="93" stroke-linejoin="miter" d="M 5612,1374 L 5758,1520"/>
        <path fill="none" stroke="rgb(51,51,51)" stroke-width="93" stroke-linejoin="miter" d="M 5758,1374 L 5612,1520"/>
       </g>
      </g>
      <g class="com.sun.star.drawing.ClosedBezierShape">
       <g id="id12">
        <rect class="BoundingBox" stroke="none" fill="none" x="1446" y="24" width="308" height="308"/>
        <path fill="none" stroke="rgb(51,51,51)" stroke-width="93" stroke-linejoin="miter" d="M 1706,177 C 1706,197 1701,214 1692,230 1682,247 1670,260 1653,269 1636,279 1619,284 1599,284 1580,284 1563,279 1546,269 1529,260 1517,247 1507,230 1497,214 1493,197 1493,177 1493,158 1497,141 1507,124 1517,107 1529,95 1546,85 1563,75 1580,71 1599,71 1619,71 1636,75 1653,85 1670,95 1682,107 1692,124 1701,141 1706,158 1706,177 Z"/>
       </g>
      </g>
      <g class="com.sun.star.drawing.PolyLineShape">
       <g id="id13">
        <rect class="BoundingBox" stroke="none" fill="none" x="5518" y="3457" width="214" height="213"/>
        <path fill="none" stroke="rgb(51,51,51)" stroke-width="93" stroke-linejoin="miter" d="M 5551,3490 L 5698,3636"/>
        <path fill="none" stroke="rgb(51,51,51)" stroke-width="93" stroke-linejoin="miter" d="M 5697,3490 L 5551,3636"/>
       </g>
      </g>
     </g>
    </g>
   </g>
  </g>
 </g>
</svg>